<svg xmlns="http://www.w3.org/2000/svg" viewBox="0 0 1200 320" width="1200" height="320" role="img" aria-label="Arcanum banner">
  <defs>
    <linearGradient id="bg" x1="0" y1="0" x2="1" y2="1">
      <stop offset="0" stop-color="#150b2e"/>
      <stop offset="0.55" stop-color="#241046"/>
      <stop offset="1" stop-color="#0b1b2e"/>
    </linearGradient>
    <linearGradient id="title" x1="0" y1="0" x2="1" y2="0">
      <stop offset="0" stop-color="#c4b5fd"/>
      <stop offset="0.5" stop-color="#f5d98b"/>
      <stop offset="1" stop-color="#5eead4"/>
    </linearGradient>
    <radialGradient id="glow" cx="0.5" cy="0.5" r="0.5">
      <stop offset="0" stop-color="#8b5cf6" stop-opacity="0.55"/>
      <stop offset="1" stop-color="#8b5cf6" stop-opacity="0"/>
    </radialGradient>
  </defs>
  <rect width="1200" height="320" rx="22" fill="url(#bg)"/>
  <circle cx="1000" cy="160" r="170" fill="url(#glow)"/>
  <g transform="translate(1000 160)" fill="none" stroke="#c4b5fd" stroke-linecap="round">
    <circle r="120" stroke-opacity="0.55" stroke-width="2"/>
    <circle r="100" stroke-opacity="0.3" stroke-width="1" stroke-dasharray="4 8"/>
    <circle r="62" stroke="#f5d98b" stroke-opacity="0.7" stroke-width="2"/>
    <polygon points="0,-62 53.7,31 -53.7,31" stroke="#f5d98b" stroke-opacity="0.8" stroke-width="2"/>
    <polygon points="0,62 53.7,-31 -53.7,-31" stroke="#5eead4" stroke-opacity="0.8" stroke-width="2"/>
    <circle r="8" fill="#f5d98b" stroke="none"/>
    <g stroke-width="3" stroke="#e9d5ff">
      <path d="M0 -120 v-14 M0 120 v14 M-120 0 h-14 M120 0 h14"/>
      <path d="M-85 -85 l-10 -10 M85 -85 l10 -10 M-85 85 l-10 10 M85 85 l10 10"/>
    </g>
  </g>
  <g fill="#e9d5ff">
    <circle cx="120" cy="60" r="1.6"/><circle cx="310" cy="38" r="1.2"/><circle cx="540" cy="70" r="1.8"/>
    <circle cx="700" cy="40" r="1.2"/><circle cx="820" cy="270" r="1.6"/><circle cx="90" cy="270" r="1.2"/>
    <circle cx="450" cy="285" r="1.6"/><circle cx="660" cy="250" r="1.2"/>
  </g>
  <text x="70" y="150" font-family="Georgia, 'Times New Roman', serif" font-size="92" font-weight="700" letter-spacing="10" fill="url(#title)">ARCANUM</text>
  <text x="74" y="200" font-family="'Segoe UI', system-ui, -apple-system, sans-serif" font-size="25" fill="#ddd6fe">Navigate. Explore. Wield the arcane.</text>
  <text x="74" y="250" font-family="'Segoe UI', system-ui, sans-serif" font-size="17" fill="#a5b4fc" letter-spacing="1">PAPER PLUGIN  ·  MINECRAFT 1.21.1 → 26.3  ·  ONE JAR</text>
</svg>
